<svg width="16" height="16" viewBox="0 0 16 16" fill="none" xmlns="http://www.w3.org/2000/svg">
<rect x="2" y="4" width="7" height="2" rx="1" fill="#96A3AB"/>
<rect x="2" y="7" width="12" height="7" rx="1" fill="#96A3AB"/>
<rect x="10" y="4" width="4" height="2" rx="1" fill="#96A3AB"/>
<rect x="0.5" y="0.5" width="15" height="15" rx="0.5" stroke="#96A3AB"/>
<path d="M0 1C0 0.447715 0.447715 0 1 0H15C15.5523 0 16 0.447715 16 1V3H0V1Z" fill="#53719D"/>
<rect x="2" y="1" width="7" height="1" rx="0.5" fill="#F0F0F0"/>
<rect x="3" y="10" width="7" height="1" rx="0.5" fill="#0A0A0A"/>
<rect x="3" y="12" width="6" height="1" rx="0.5" fill="#0A0A0A"/>
<rect x="3" y="8" width="5" height="1" rx="0.5" fill="#0A0A0A"/>
<rect x="12" y="8" width="1" height="1" rx="0.5" fill="#0A0A0A"/>
<rect x="12" y="12" width="1" height="1" rx="0.5" fill="#0A0A0A"/>
<rect x="12" y="10" width="1" height="1" rx="0.5" fill="#0A0A0A"/>
</svg>
