<svg width="16" height="16" viewBox="0 0 16 16" fill="none" xmlns="http://www.w3.org/2000/svg">
<g clip-path="url(#clip0_402_43)">
<mask id="mask0_402_43" style="mask-type:alpha" maskUnits="userSpaceOnUse" x="0" y="0" width="16" height="16">
<path fill-rule="evenodd" clip-rule="evenodd" d="M16 0H0V16H9C7.89543 16 7 15.1046 7 14V13.8284C7 13.298 7.21071 12.7893 7.58579 12.4142L12.4142 7.58579C12.7893 7.21071 13.298 7 13.8284 7H14C15.1046 7 16 7.89543 16 9V0ZM16 14C16 15.1046 15.1046 16 14 16H16V14Z" fill="#D9D9D9"/>
</mask>
<g mask="url(#mask0_402_43)">
<path d="M8 15C11.866 15 15 11.866 15 8C15 4.13401 11.866 1 8 1C4.13401 1 1 4.13401 1 8C1 11.866 4.13401 15 8 15Z" fill="#25324D"/>
<path d="M1.4375 8C1.4375 11.6243 4.37563 14.5625 8 14.5625C11.6243 14.5625 14.5625 11.6243 14.5625 8C14.5625 4.37563 11.6243 1.4375 8 1.4375C4.37563 1.4375 1.4375 4.37563 1.4375 8Z" stroke="#548AF7" stroke-linecap="round" stroke-linejoin="round"/>
<path d="M8.65625 1.46985C8.65625 1.46985 10.625 4.06244 10.625 7.99992C10.625 11.9374 8.65625 14.5301 8.65625 14.5301" stroke="#548AF7" stroke-linecap="round" stroke-linejoin="round"/>
<path d="M7.34375 14.5301C7.34375 14.5301 5.375 11.9374 5.375 7.99992C5.375 4.06244 7.34375 1.46985 7.34375 1.46985" stroke="#548AF7" stroke-linecap="round" stroke-linejoin="round"/>
<path d="M1.85071 10.2969H14.1493" stroke="#548AF7" stroke-linecap="round" stroke-linejoin="round"/>
<path d="M1.85071 5.70312H14.1493" stroke="#548AF7" stroke-linecap="round" stroke-linejoin="round"/>
</g>
<path fill-rule="evenodd" clip-rule="evenodd" d="M14.4122 8.29289C14.0217 7.90237 13.3885 7.90237 12.998 8.29289L11.6466 9.64425L8 13.2909V15.998H10.7071L15.7051 11C16.0956 10.6095 16.0956 9.97631 15.7051 9.58579L14.4122 8.29289ZM14 11.2909L14.998 10.2929L13.7051 9L12.7071 9.99797L14 11.2909ZM12 10.7051L13.2929 11.998L10.2929 14.998H9V13.7051L12 10.7051Z" fill="#548AF7"/>
</g>
<defs>
<clipPath id="clip0_402_43">
<rect width="16" height="16" fill="white"/>
</clipPath>
</defs>
</svg>
