<svg width="16" height="17" viewBox="0 0 16 17" fill="none" xmlns="http://www.w3.org/2000/svg">
<rect x="3" y="7" width="10" height="5" rx="1" fill="#96A3AB"/>
<rect x="1" y="15" width="14" height="1" rx="0.5" fill="#96A3AB"/>
<rect x="1" y="1" width="14" height="1" rx="0.5" fill="#96A3AB"/>
<rect x="1.5" y="4.5" width="13" height="9" rx="0.5" stroke="#96A3AB"/>
<path d="M1 4C1 3.44772 1.44772 3 2 3H14C14.5523 3 15 3.44772 15 4V6H1V4Z" fill="#53719D"/>
<rect x="3" y="4" width="5" height="1" rx="0.5" fill="#F0F0F0"/>
<rect x="4" y="8" width="5" height="1" rx="0.5" fill="#0A0A0A"/>
<rect x="4" y="10" width="4" height="1" rx="0.5" fill="#0A0A0A"/>
<rect x="10" y="8" width="2" height="1" rx="0.5" fill="#0A0A0A"/>
</svg>
