<svg width="16" height="16" viewBox="0 0 16 16" fill="none" xmlns="http://www.w3.org/2000/svg">
<g clip-path="url(#clip0_204_109)">
<path d="M144.077 -69.75H-6.84613V29.4167H144.077V-69.75Z" fill="#D8D8D8"/>
<path d="M16 9H7V9.77583H16V9Z" fill="#DC4437"/>
<path d="M16 10.5575H7V11.3333H16V10.5575Z" fill="#DC4437"/>
<path d="M16 13.6667H7V14.4425H16V13.6667Z" fill="#DC4437"/>
<path d="M16 15.2242H7V16H16V15.2242Z" fill="#DC4437"/>
<path d="M16 12.1092H7V12.885H16V12.1092Z" fill="#DC4437"/>
<path d="M16 9.77585H7V10.5517H16V9.77585Z" fill="white"/>
<path d="M16 11.3333H7V12.1092H16V11.3333Z" fill="white"/>
<path d="M16 14.4425H7V15.2183H16V14.4425Z" fill="white"/>
<path d="M16 12.8908H7V13.6667H16V12.8908Z" fill="white"/>
<path d="M11.8462 9H7V12.8908H11.8462V9Z" fill="#2A66B7"/>
<path d="M7.93464 9.23334L8.09387 9.51917L8.45387 9.56584L8.19079 9.79334L8.2531 10.1083L7.93464 9.95667L7.61617 10.1083L7.67848 9.79334L7.41541 9.56584L7.77541 9.51917L7.93464 9.23334Z" fill="white"/>
<path d="M9.35383 9.23334L9.51306 9.51917L9.87306 9.56584L9.6169 9.79334L9.67229 10.1083L9.35383 9.95667L9.03536 10.1083L9.09075 9.79334L8.83459 9.56584L9.19459 9.51917L9.35383 9.23334Z" fill="white"/>
<path d="M10.7731 9.23334L10.9323 9.51917L11.2923 9.56584L11.0292 9.79334L11.0915 10.1083L10.7731 9.95667L10.4546 10.1083L10.5169 9.79334L10.2538 9.56584L10.6138 9.51917L10.7731 9.23334Z" fill="white"/>
<path d="M8.66156 10.4L8.8208 10.6858L9.1808 10.7325L8.92464 10.96L8.98003 11.275L8.66156 11.1233L8.3431 11.275L8.39849 10.96L8.14233 10.7325L8.50233 10.6858L8.66156 10.4Z" fill="white"/>
<path d="M10.0808 10.4L10.24 10.6858L10.6 10.7325L10.3369 10.96L10.3992 11.275L10.0808 11.1233L9.76229 11.275L9.8246 10.96L9.56152 10.7325L9.92152 10.6858L10.0808 10.4Z" fill="white"/>
<path d="M7.93464 11.6367L8.09387 11.9225L8.45387 11.9692L8.19079 12.1908L8.2531 12.5117L7.93464 12.36L7.61617 12.5117L7.67848 12.1908L7.41541 11.9692L7.77541 11.9225L7.93464 11.6367Z" fill="white"/>
<path d="M9.35383 11.6367L9.51306 11.9225L9.87306 11.9692L9.6169 12.1908L9.67229 12.5117L9.35383 12.36L9.03536 12.5117L9.09075 12.1908L8.83459 11.9692L9.19459 11.9225L9.35383 11.6367Z" fill="white"/>
<path d="M10.7731 11.6367L10.9323 11.9225L11.2923 11.9692L11.0292 12.1908L11.0915 12.5117L10.7731 12.36L10.4546 12.5117L10.5169 12.1908L10.2538 11.9692L10.6138 11.9225L10.7731 11.6367Z" fill="white"/>
</g>
<defs>
<clipPath id="clip0_204_109">
<rect x="7" y="9" width="9" height="7" rx="1" fill="white"/>
</clipPath>
</defs>
</svg>
