<svg width="16" height="16" viewBox="0 0 16 16" fill="none" xmlns="http://www.w3.org/2000/svg">
<g clip-path="url(#clip0_205_188)">
<mask id="mask0_205_188" style="mask-type:luminance" maskUnits="userSpaceOnUse" x="0" y="0" width="16" height="16">
<path d="M16 0H0V16H16V0Z" fill="white"/>
</mask>
<g mask="url(#mask0_205_188)">
<path d="M8 15C11.866 15 15 11.866 15 8C15 4.13401 11.866 1 8 1C4.13401 1 1 4.13401 1 8C1 11.866 4.13401 15 8 15Z" fill="#25324D"/>
<path d="M1.4375 8C1.4375 11.6243 4.37563 14.5625 8 14.5625C11.6243 14.5625 14.5625 11.6243 14.5625 8C14.5625 4.37563 11.6243 1.4375 8 1.4375C4.37563 1.4375 1.4375 4.37563 1.4375 8Z" stroke="#548AF7" stroke-linecap="round" stroke-linejoin="round"/>
<path d="M8.65625 1.46985C8.65625 1.46985 10.625 4.06244 10.625 7.99992C10.625 11.9374 8.65625 14.5301 8.65625 14.5301" stroke="#548AF7" stroke-linecap="round" stroke-linejoin="round"/>
<path d="M7.34375 14.5301C7.34375 14.5301 5.375 11.9374 5.375 7.99992C5.375 4.06244 7.34375 1.46985 7.34375 1.46985" stroke="#548AF7" stroke-linecap="round" stroke-linejoin="round"/>
<path d="M1.85071 10.2969H14.1493" stroke="#548AF7" stroke-linecap="round" stroke-linejoin="round"/>
<path d="M1.85071 5.70312H14.1493" stroke="#548AF7" stroke-linecap="round" stroke-linejoin="round"/>
</g>
<rect x="10" y="6" width="2" height="10" rx="1" fill="#8AF754"/>
<rect x="6" y="12" width="2" height="10" rx="1" transform="rotate(-90 6 12)" fill="#8AF754"/>
</g>
<defs>
<clipPath id="clip0_205_188">
<rect width="16" height="16" fill="white"/>
</clipPath>
</defs>
</svg>
